<?xml version="1.0" encoding="UTF-8"?>
<!DOCTYPE svg PUBLIC "-//W3C//DTD SVG 1.1//EN" "http://www.w3.org/Graphics/SVG/1.1/DTD/svg11.dtd">
<!-- Creator: CorelDRAW X8 -->
<svg xmlns="http://www.w3.org/2000/svg" xml:space="preserve" width="1861px" height="1929px" version="1.1" style="shape-rendering:geometricPrecision; text-rendering:geometricPrecision; image-rendering:optimizeQuality; fill-rule:evenodd; clip-rule:evenodd"
viewBox="0 0 18610 19290"
 xmlns:xlink="http://www.w3.org/1999/xlink">
 <defs>
  <style type="text/css">
   <![CDATA[
    .fil2 {fill:#466FA6}
    .fil1 {fill:#466FA6}
    .fil4 {fill:#5E96DE}
    .fil3 {fill:#5E96DE}
    .fil0 {fill:#CC1F1F}
   ]]>
  </style>
 </defs>
 <g id="Capa_x0020_1">
  <metadata id="CorelCorpID_0Corel-Layer"/>
  <g id="_3120929675040">
   <path class="fil0" d="M14191 11230c-25,165 -47,468 144,478 0,0 431,0 459,-35 60,-75 88,-284 35,-472 -247,-15 -588,-6 -638,29z"/>
   <polygon class="fil1" points="9163,13226 9163,13601 9635,13770 "/>
   <polygon class="fil1" points="9232,9289 9232,9664 9619,9370 "/>
   <g>
    <path class="fil2" d="M8288 10683c-494,-216 -1072,12 -1288,506 -215,494 13,1072 507,1287 493,216 1069,-12 1284,-506 216,-494 -9,-1072 -503,-1287z"/>
    <path class="fil2" d="M14279 11258c-129,131 -129,340 0,468 128,132 340,132 468,0 132,-131 128,-340 0,-468 -128,-128 -337,-128 -468,0z"/>
    <path class="fil2" d="M18550 8964c-28,-263 -334,-459 -596,-459 -854,0 -1610,-500 -1925,-1275 -325,-794 -116,-1719 518,-2300 47,-44 85,-94 113,-150 206,-354 59,-900 12,-997 -118,59 -197,137 -247,225 -390,-466 -825,-891 -1293,-1266 -213,-169 -522,-147 -707,56 -553,613 -1550,844 -2318,522 -800,-337 -1307,-1147 -1257,-2019 16,-275 -184,-512 -456,-543 -694,-82 -1397,-85 -2094,-7 -268,32 -468,263 -459,532 31,862 -481,1659 -1275,1984 -759,309 -1750,84 -2303,-525 -184,-200 -488,-225 -703,-59 -400,312 -775,662 -1116,1034 -75,-31 -162,-31 -272,9 -50,-71 -106,-100 -162,-56 -153,153 -238,694 -6,1069 28,50 62,97 106,137 0,0 3,4 3,4 12,12 22,21 34,34 616,587 810,1497 482,2284 -322,766 -1116,1257 -2025,1257 -294,-10 -507,187 -538,456 -81,700 -81,1409 -3,2115 28,263 344,457 609,457 810,-22 1588,481 1913,1275 284,693 159,1484 -300,2062 -13,-15 -25,-28 -41,-44 -40,-156 -90,-253 -134,-206 -13,13 -25,31 -38,50 -37,-25 -72,-40 -93,-34 -94,115 -285,797 25,1172 431,550 928,1050 1471,1487 213,172 522,147 710,-56 556,-616 1553,-844 2319,-522 803,334 1306,1147 1259,2019 -16,275 184,512 456,544 356,40 713,62 1072,62 341,0 681,-19 1022,-56 269,-31 469,-263 459,-531 -31,-863 482,-1660 1272,-1985 766,-312 1750,-84 2303,525 185,200 488,225 703,60 557,-438 1063,-938 1507,-1488 9,-9 15,-22 25,-34 0,0 0,0 0,0 537,-616 59,-1038 -25,-1185 -135,60 28,303 -60,507 -643,-588 -853,-1516 -515,-2316 315,-753 1081,-1259 1903,-1259l115 3c266,22 513,-185 544,-456 85,-697 85,-1410 6,-2113zm-8350 3159l810 350 -356 822 -810 -350c-184,269 -412,491 -678,660l322 815 -834 328 -322 -815c-310,56 -628,53 -947,-19l-350 806 -825 -356 350 -806c-269,-185 -491,-416 -660,-682l-815 322 -328 -831 815 -322c-56,-309 -153,-675 -84,-990l-703 -307 356 -822 806 350c185,-268 416,-493 679,-659l-319 -819 831 -328 322 816c309,-60 628,-53 947,19l350 -807 822 357 -350 806c268,184 490,415 659,678l816 -322 328 835 -728 324c56,310 -32,629 -104,947zm4829 72c-288,291 -760,291 -1054,6l-6 7 -4387 -4413 12 -9 -2006 -6c0,0 -519,-1935 -566,-2107 -78,-275 119,-334 225,-225 188,188 1122,1119 1122,1119l1094 -1094c0,0 -956,-953 -1122,-1118 -62,-63 -41,-307 225,-225 266,81 2109,562 2109,562l7 2063 4353 4387c284,294 284,763 -6,1053z"/>
   </g>
   <path class="fil3" d="M8288 10339c-494,-216 -1072,12 -1288,506 -215,494 13,1072 507,1288 493,215 1069,-13 1284,-507 216,-493 -9,-1071 -503,-1287z"/>
   <path class="fil3" d="M14279 11070c-129,131 -129,341 0,469 128,131 340,131 468,0 132,-131 128,-341 0,-469 -128,-128 -337,-128 -468,0z"/>
   <path class="fil4" d="M18550 8267c-28,-262 -334,-459 -596,-459 -854,0 -1610,-500 -1925,-1275 -325,-794 -116,-1719 518,-2300 200,-182 225,-488 57,-700 -438,-553 -932,-1053 -1475,-1488 -213,-169 -522,-147 -707,56 -553,613 -1550,844 -2318,522 -800,-337 -1307,-1147 -1257,-2018 16,-275 -184,-513 -456,-544 -694,-81 -1397,-85 -2094,-6 -268,31 -468,262 -459,531 31,862 -481,1659 -1275,1984 -759,310 -1750,85 -2303,-525 -185,-200 -488,-225 -703,-59 -557,437 -1066,937 -1507,1487 -171,213 -146,522 57,707 647,587 856,1518 518,2321 -321,766 -1115,1257 -2025,1257 -293,-10 -506,187 -537,456 -81,700 -81,1409 -3,2116 28,262 344,456 609,456 810,-22 1588,481 1913,1275 325,794 115,1715 -519,2300 -200,181 -225,487 -56,700 431,550 928,1050 1472,1487 212,172 521,147 709,-56 556,-616 1553,-844 2319,-522 803,335 1306,1147 1259,2019 -16,275 184,512 456,544 357,40 713,62 1072,62 341,0 681,-19 1022,-56 269,-31 469,-263 459,-531 -31,-863 482,-1660 1272,-1985 766,-312 1750,-84 2303,525 185,200 488,225 704,60 556,-438 1062,-938 1506,-1488 172,-212 147,-522 -56,-706 -647,-588 -857,-1519 -522,-2322 315,-753 1081,-1259 1903,-1259l115 3c266,22 513,-185 544,-456 85,-694 85,-1407 6,-2113zm-8350 3481l810 350 -356 822 -810 -350c-184,269 -412,491 -678,660l322 815 -834 328 -322 -815c-310,56 -628,53 -947,-19l-350 806 -825 -356 350 -806c-269,-185 -491,-416 -660,-682l-815 322 -328 -831 815 -322c-56,-309 -50,-628 19,-947l-806 -350 356 -822 806 350c185,-268 416,-493 679,-659l-319 -819 831 -328 322 816c309,-60 628,-53 947,19l350 -807 822 357 -350 806c268,184 490,415 659,678l816 -322 328 835 -819 321c66,313 59,632 -13,950zm4829 72c-288,291 -760,291 -1054,6l-6 7 -4387 -4413 12 -9 -2006 -6c0,0 -519,-1935 -566,-2107 -78,-275 119,-334 225,-225 188,188 1122,1119 1122,1119l1094 -1094c0,0 -956,-953 -1122,-1118 -62,-63 -41,-307 225,-225 266,81 2109,562 2109,562l7 2063 4353 4387c284,294 284,763 -6,1053z"/>
   <polygon class="fil1" points="10200,11748 10200,12123 10850,12030 "/>
  </g>
 </g>
</svg>
