<?xml version="1.0" encoding="UTF-8"?>
<!DOCTYPE svg PUBLIC "-//W3C//DTD SVG 1.1//EN" "http://www.w3.org/Graphics/SVG/1.1/DTD/svg11.dtd">
<!-- Creator: CorelDRAW X8 -->
<svg xmlns="http://www.w3.org/2000/svg" xml:space="preserve" width="947px" height="964px" version="1.1" style="shape-rendering:geometricPrecision; text-rendering:geometricPrecision; image-rendering:optimizeQuality; fill-rule:evenodd; clip-rule:evenodd"
viewBox="0 0 9470 9640"
 xmlns:xlink="http://www.w3.org/1999/xlink">
 <defs>
  <style type="text/css">
   <![CDATA[
    .fil0 {fill:#5E96DE}
   ]]>
  </style>
 </defs>
 <g id="Capa_x0020_1">
  <metadata id="CorelCorpID_0Corel-Layer"/>
  <g id="_3121018421376">
   <path class="fil0" d="M2706 2703c-522,522 -825,1175 -925,1804 0,0 -37,250 138,425 181,181 490,187 681,-4 113,-112 138,-271 138,-271 59,-310 156,-775 653,-1272 497,-497 962,-594 1272,-653 0,0 159,-25 271,-138 191,-191 182,-503 4,-681 -175,-175 -425,-138 -425,-138 -632,103 -1285,407 -1807,928z"/>
   <path class="fil0" d="M4934 982c0,0 266,43 438,-129 194,-193 184,-503 0,-684 -119,-119 -306,-144 -306,-144 -722,-103 -2178,25 -3594,1444 -1419,1416 -1550,2872 -1444,3594 0,0 25,190 144,306 181,181 491,194 684,0 172,-172 128,-437 128,-437 -125,-838 263,-1869 1172,-2779 910,-909 1941,-1296 2778,-1171z"/>
   <g>
    <path class="fil0" d="M6663 3747l-319 -319 -338 -337c-118,-119 -118,-316 0,-434l1550 -1554c119,-118 313,-115 432,4 256,256 512,515 771,771l-1993 1994c-32,-44 -66,-87 -103,-125zm-2513 3525l-2044 2044c488,478 1703,419 2769,-100 459,-222 875,-513 1269,-813 394,-300 762,-628 1109,-978 347,-347 675,-718 975,-1112 300,-397 591,-813 813,-1272 522,-1066 581,-2278 106,-2766l-2044 2044c119,325 75,709 -153,975 -281,328 -578,641 -881,944 -303,303 -616,600 -941,881 -265,228 -653,272 -978,153zm-3206 878c256,257 515,513 772,772l1990 -1990c-43,-32 -87,-66 -125,-104l-315 -315 -341 -341 0 0c-119,-119 -316,-119 -434,0l-1550 1553c-119,116 -119,307 3,425z"/>
   </g>
  </g>
 </g>
</svg>
