<?xml version="1.0" encoding="UTF-8"?>
<!DOCTYPE svg PUBLIC "-//W3C//DTD SVG 1.1//EN" "http://www.w3.org/Graphics/SVG/1.1/DTD/svg11.dtd">
<!-- Creator: CorelDRAW X8 -->
<svg xmlns="http://www.w3.org/2000/svg" xml:space="preserve" width="1860px" height="1860px" version="1.1" style="shape-rendering:geometricPrecision; text-rendering:geometricPrecision; image-rendering:optimizeQuality; fill-rule:evenodd; clip-rule:evenodd"
viewBox="0 0 18600 18600"
 xmlns:xlink="http://www.w3.org/1999/xlink">
 <defs>
  <style type="text/css">
   <![CDATA[
    .fil0 {fill:#5E96DE}
   ]]>
  </style>
 </defs>
 <g id="Capa_x0020_1">
  <metadata id="CorelCorpID_0Corel-Layer"/>
  <g id="_3121010789792">
   <g>
    <path class="fil0" d="M9306 -14c-5128,0 -9300,4172 -9300,9300 0,5128 4172,9300 9300,9300 5128,0 9300,-4172 9300,-9300 3,-5128 -4169,-9300 -9300,-9300zm0 17269c-4394,0 -7969,-3575 -7969,-7969 0,-4394 3575,-7969 7969,-7969 4393,0 7968,3575 7968,7969 0,4394 -3575,7969 -7968,7969z"/>
    <path class="fil0" d="M14090 9133l-4372 0 0 -4778c0,-369 -297,-666 -665,-666 -369,0 -666,300 -666,666l0 5443c0,369 300,666 666,666l5037 0c369,0 666,-300 666,-666 0,-368 -297,-665 -666,-665z"/>
   </g>
  </g>
 </g>
</svg>
