<?xml version="1.0" encoding="UTF-8"?>
<!DOCTYPE svg PUBLIC "-//W3C//DTD SVG 1.1//EN" "http://www.w3.org/Graphics/SVG/1.1/DTD/svg11.dtd">
<!-- Creator: CorelDRAW X8 -->
<svg xmlns="http://www.w3.org/2000/svg" xml:space="preserve" width="1274px" height="1239px" version="1.1" style="shape-rendering:geometricPrecision; text-rendering:geometricPrecision; image-rendering:optimizeQuality; fill-rule:evenodd; clip-rule:evenodd"
viewBox="0 0 12740 12390"
 xmlns:xlink="http://www.w3.org/1999/xlink">
 <defs>
  <style type="text/css">
   <![CDATA[
    .fil0 {fill:#5E96DE}
   ]]>
  </style>
 </defs>
 <g id="Capa_x0020_1">
  <metadata id="CorelCorpID_0Corel-Layer"/>
  <g id="_3121018976544">
   <g>
    <g>
     <path class="fil0" d="M6370 8773c353,0 3297,-3656 3297,-5475 0,-1822 -1478,-3297 -3297,-3297 -1819,0 -3294,1475 -3294,3297 0,1822 2953,5475 3294,5475zm-2128 -5591c0,-1175 953,-2128 2128,-2128 1175,0 2128,953 2128,2128 0,1175 -953,2129 -2128,2129 -1175,0 -2128,-953 -2128,-2129z"/>
     <path class="fil0" d="M12223 7317c0,-303 -247,-550 -550,-550 0,0 -1469,0 -2006,0 -41,0 -91,-3 -144,87 -100,169 -2753,3532 -3153,3532 -400,0 -3050,-3382 -3156,-3560 -41,-65 -94,-59 -166,-59 -494,0 -1981,0 -1981,0 -303,0 -550,247 -550,550l-516 4522c0,303 247,550 550,550l11638 0c303,0 550,-247 550,-550l-516 -4522z"/>
    </g>
   </g>
  </g>
 </g>
</svg>
